<svg xmlns="http://www.w3.org/2000/svg" height="99.85" viewBox="0 0 100 99.853" fill="black" preserveAspectRatio="none" enable-background="new 0 0 100 99.853"><path d="m62.841 46.809c4.03-1.447 10.757-2.366 17.216 1.222 10.979 6.097 21.299-3.18 19.797-13.452-1.332-9.103-6.954-18.371-14.09-22.09-10.678-5.565-18.762-2.468-25.02 4.323-4.097 4.45-8.382 12.298-8.714 19.762-.157 3.514-4.237 3.329-5.218.591-1.448-4.03-2.367-10.758 1.219-17.215 6.1-10.981-3.178-21.302-13.449-19.799-9.104 1.334-18.371 6.953-22.09 14.1-5.566 10.677-2.469 18.761 4.322 25.02 4.449 4.098 12.301 8.385 19.762 8.717 3.515.156 3.33 4.236.592 5.216-4.03 1.449-10.76 2.369-17.216-1.219-10.981-6.1-21.302 3.179-19.798 13.451 1.332 9.104 6.953 18.371 14.1 22.09 10.677 5.567 18.761 2.469 25.02-4.322 4.098-4.448 8.384-12.299 8.715-19.761.157-3.516 4.236-3.329 5.218-.596 1.447 4.03 2.367 10.76-1.22 17.219-6.1 10.978 3.178 21.299 13.45 19.795 9.104-1.332 18.371-6.949 22.09-14.09 5.569-10.679 2.47-18.76-4.321-25.02-4.448-4.095-12.301-8.383-19.761-8.713-3.515-.157-3.329-4.236-.592-5.219m-12.841 8.265c-2.801 0-5.072-2.271-5.072-5.072 0-2.801 2.271-5.072 5.072-5.072 2.802 0 5.072 2.271 5.072 5.072 0 2.801-2.27 5.072-5.072 5.072"/></svg>