<?xml version="1.0" encoding="utf-8"?>
<!-- Generator: Adobe Illustrator 17.0.0, SVG Export Plug-In . SVG Version: 6.00 Build 0)  -->
<!DOCTYPE svg PUBLIC "-//W3C//DTD SVG 1.1//EN" "http://www.w3.org/Graphics/SVG/1.1/DTD/svg11.dtd">
<svg version="1.1" id="Layer_1" xmlns="http://www.w3.org/2000/svg" xmlns:xlink="http://www.w3.org/1999/xlink" x="0px" y="0px"
	 width="43.207px" height="39.525px" viewBox="0 0 43.207 39.525" enable-background="new 0 0 43.207 39.525" xml:space="preserve">
<path d="M6.34,1.222H0V0h14.402v1.222h-6.34v8.853H6.34V1.222z"/>
<path d="M35.145,1.222h-6.34V0h14.402v1.222h-6.34v8.853h-1.723V1.222z"/>
<path d="M6.34,29.226V9.941h1.723v9.21h6.34v1.222h-6.34v8.853H6.34z"/>
<path d="M28.805,20.373H14.402v-1.222h14.402V20.373z"/>
<path d="M35.145,29.226v-8.853h-6.34v-1.222h6.34v-9.21h1.723v19.284H35.145z"/>
<path d="M14.402,39.525H0v-1.222h6.34v-9.21h1.723v9.21h6.34V39.525z"/>
<path d="M43.207,39.525H28.805v-1.222h6.34v-9.21h1.723v9.21h6.34V39.525z"/>
</svg>
