<?xml version="1.0" encoding="utf-8"?>
<!-- Generator: Adobe Illustrator 17.0.0, SVG Export Plug-In . SVG Version: 6.00 Build 0)  -->
<!DOCTYPE svg PUBLIC "-//W3C//DTD SVG 1.1//EN" "http://www.w3.org/Graphics/SVG/1.1/DTD/svg11.dtd">
<svg version="1.1" id="Layer_1" xmlns="http://www.w3.org/2000/svg" xmlns:xlink="http://www.w3.org/1999/xlink" x="0px" y="0px"
	 width="30.527px" height="39.525px" viewBox="0 0 30.527 39.525" enable-background="new 0 0 30.527 39.525" xml:space="preserve">
<path d="M8.063,0v1.222h-6.34v8.853H0V0H8.063z"/>
<path d="M22.465,1.222H8.063V0h14.402V1.222z"/>
<path d="M28.805,1.222h-6.34V0h8.063v10.074h-1.723V1.222z"/>
<path d="M0,29.226V9.941h1.723v19.284H0z"/>
<path d="M28.805,29.226V9.941h1.723v19.284H28.805z"/>
<path d="M0,39.525V29.093h1.723v9.21h6.34v1.222H0z"/>
<path d="M22.465,39.525H8.063v-1.222h14.402V39.525z"/>
<path d="M30.527,39.525h-8.063v-1.222h6.34v-9.21h1.723V39.525z"/>
</svg>
