<?xml version="1.0" encoding="utf-8"?>
<!-- Generator: Adobe Illustrator 17.0.0, SVG Export Plug-In . SVG Version: 6.00 Build 0)  -->
<!DOCTYPE svg PUBLIC "-//W3C//DTD SVG 1.1//EN" "http://www.w3.org/Graphics/SVG/1.1/DTD/svg11.dtd">
<svg version="1.1" id="Layer_1" xmlns="http://www.w3.org/2000/svg" xmlns:xlink="http://www.w3.org/1999/xlink" x="0px" y="0px"
	 width="34.277px" height="42.185px" viewBox="0 0 34.277 42.185" enable-background="new 0 0 34.277 42.185" xml:space="preserve">
<path d="M1.723,11.404H0V0h9.938v1.222H1.723V11.404z M5.473,3.882v7.523H3.75V2.66h6.188v1.222H5.473z"/>
<path d="M24.34,1.222H9.938V0H24.34V1.222z M14.402,3.882H9.938V2.66h6.188v8.744h-1.723V3.882z M18.152,11.404V2.66h6.188v1.222
	h-4.465v7.523H18.152z"/>
<path d="M32.555,11.404V1.222H24.34V0h9.938v11.404H32.555z M28.805,3.882H24.34V2.66h6.188v8.744h-1.723V3.882z"/>
<path d="M14.402,30.556V11.271h1.723v19.284H14.402z M18.152,30.556V11.271h1.723v19.284H18.152z"/>
<path d="M16.125,39.525H9.938v-1.222h4.465v-7.88h1.723V39.525z M24.34,42.185H9.938v-1.222H24.34V42.185z M24.34,39.525h-6.188
	v-9.102h1.723v7.88h4.465V39.525z"/>
</svg>
