<?xml version="1.0" encoding="utf-8"?>
<!-- Generator: Adobe Illustrator 17.0.0, SVG Export Plug-In . SVG Version: 6.00 Build 0)  -->
<!DOCTYPE svg PUBLIC "-//W3C//DTD SVG 1.1//EN" "http://www.w3.org/Graphics/SVG/1.1/DTD/svg11.dtd">
<svg version="1.1" id="Layer_1" xmlns="http://www.w3.org/2000/svg" xmlns:xlink="http://www.w3.org/1999/xlink" x="0px" y="0px"
	 width="57.609px" height="42.185px" viewBox="0 0 57.609 42.185" enable-background="new 0 0 57.609 42.185" xml:space="preserve">
<g>
	<path d="M14.402,1.222H0V0h14.402V1.222z M4.465,3.882H0V2.66h6.188v8.744H4.465V3.882z M8.215,11.404V2.66h6.188v1.222H9.938
		v7.523H8.215z"/>
	<path d="M43.207,1.222H28.805V0h14.402V1.222z M33.27,3.882h-4.465V2.66h6.188v8.744H33.27V3.882z M37.02,11.404V2.66h6.188v1.222
		h-4.465v7.523H37.02z"/>
	<path d="M57.609,1.222H43.207V0h14.402V1.222z M47.672,3.882h-4.465V2.66h6.188v8.744h-1.723V3.882z M51.422,11.404V2.66h6.188
		v1.222h-4.465v7.523H51.422z"/>
	<path d="M4.465,30.556V11.271h1.723v19.284H4.465z M8.215,30.556V11.271h1.723v19.284H8.215z"/>
	<path d="M33.27,30.556V11.271h1.723v19.284H33.27z M37.02,30.556V11.271h1.723v19.284H37.02z"/>
	<path d="M47.672,30.556V11.271h1.723v19.284H47.672z M51.422,30.556V11.271h1.723v19.284H51.422z"/>
	<path d="M6.188,30.423v10.54h8.215v1.222H4.465V30.423H6.188z M9.938,38.303h4.465v1.222H8.215v-9.102h1.723V38.303z"/>
	<path d="M28.805,39.525H14.402v-1.222h14.402V39.525z M28.805,42.185H14.402v-1.222h14.402V42.185z"/>
	<path d="M37.02,30.423h1.723v11.762h-9.938v-1.222h8.215V30.423z M33.27,38.303v-7.88h1.723v9.102h-6.188v-1.222H33.27z"/>
	<path d="M49.395,39.525h-6.188v-1.222h4.465v-7.88h1.723V39.525z M57.609,42.185H43.207v-1.222h14.402V42.185z M57.609,39.525
		h-6.188v-9.102h1.723v7.88h4.465V39.525z"/>
</g>
</svg>
